<svg xmlns="http://www.w3.org/2000/svg" xmlns:xlink="http://www.w3.org/1999/xlink" version="1.1" x="0px" y="0px" viewBox="-3.2 -6.4 70.4 86.4" style="enable-background:new 0 0 64 64;" xml:space="preserve"><path d="M36.9169922,28.0833893H51c0.5527344,0,1-0.4472656,1-1V13.0003815c0-0.5527344-0.4472656-1-1-1H36.9169922  c-0.5527344,0-1,0.4472656-1,1v6.0410156h-7.8339844v-6.0410156c0-0.5527344-0.4472656-1-1-1H13c-0.5527344,0-1,0.4472656-1,1  v14.0830078c0,0.5527344,0.4472656,1,1,1h14.0830078c0.5527344,0,1-0.4472656,1-1v-6.0419922h2.9121094v22.9160156  c0,0.5527344,0.4472656,1,1,1h3.921875v6.0429688c0,0.5527344,0.4472656,1,1,1H51c0.5527344,0,1-0.4472656,1-1V36.9163971  c0-0.5527344-0.4472656-1-1-1H36.9169922c-0.5527344,0-1,0.4472656-1,1v6.0410156h-2.921875V21.0413971h2.921875v6.0419922  C35.9169922,27.6361237,36.3642578,28.0833893,36.9169922,28.0833893z M26.0830078,26.0833893H14V14.0003815h12.0830078V26.0833893z   M37.9169922,37.9163971H50v12.0839844H37.9169922V37.9163971z M37.9169922,14.0003815H50v12.0830078H37.9169922V14.0003815z"/><path d="M24.6191406,20.7913971c-0.2763672,0-0.5,0.2236328-0.5,0.5v2.8271484H23.375c-0.2763672,0-0.5,0.2236328-0.5,0.5  s0.2236328,0.5,0.5,0.5h1.2441406c0.2763672,0,0.5-0.2236328,0.5-0.5v-3.3271484  C25.1191406,21.0150299,24.8955078,20.7913971,24.6191406,20.7913971z"/><path d="M16.4580078,14.9642487h-0.9931641c-0.2763672,0-0.5,0.2236328-0.5,0.5v2.9521484c0,0.2763672,0.2236328,0.5,0.5,0.5  s0.5-0.2236328,0.5-0.5v-2.4521484h0.4931641c0.2763672,0,0.5-0.2236328,0.5-0.5S16.734375,14.9642487,16.4580078,14.9642487z"/><path d="M41.5,15.9642487h4.625c0.2763672,0,0.5-0.2236328,0.5-0.5s-0.2236328-0.5-0.5-0.5H41.5c-0.2763672,0-0.5,0.2236328-0.5,0.5  S41.2236328,15.9642487,41.5,15.9642487z"/><path d="M39.3808594,25.1185455h1.5361328c0.2763672,0,0.5-0.2236328,0.5-0.5s-0.2236328-0.5-0.5-0.5h-1.0361328v-0.8271484  c0-0.2763672-0.2236328-0.5-0.5-0.5s-0.5,0.2236328-0.5,0.5v1.3271484  C38.8808594,24.8949127,39.1044922,25.1185455,39.3808594,25.1185455z"/><path d="M47.2080078,49.0355377h1.3271484c0.2763672,0,0.5-0.2236328,0.5-0.5v-3.8691406c0-0.2763672-0.2236328-0.5-0.5-0.5  s-0.5,0.2236328-0.5,0.5v3.3691406h-0.8271484c-0.2763672,0-0.5,0.2236328-0.5,0.5S46.9316406,49.0355377,47.2080078,49.0355377z"/><path d="M48.5351563,43.3744049c0.2763672,0,0.5-0.2236328,0.5-0.5v-1.4169922c0-0.2763672-0.2236328-0.5-0.5-0.5  s-0.5,0.2236328-0.5,0.5v1.4169922C48.0351563,43.1507721,48.2587891,43.3744049,48.5351563,43.3744049z"/></svg>