<svg xmlns="http://www.w3.org/2000/svg" version="1.1" viewBox="-5.0 -10.0 110.0 135.0">
 <path d="m84.582 26.125c1.207-2.832-0.125-6.168-3-7.418l-9.957-4.207c-1.375-0.58203-2.918-0.625-4.293-0.042969-1.418 0.58203-2.5 1.668-3.082 3.043l-3 7.082-13.457 31.668c-0.79297 1.875-1.082 3.918-0.95703 5.957h-28.379c-2.668 0-4.832 2.168-4.832 4.832v14.5c0 2.668 2.168 4.832 4.832 4.832h63.082c2.668 0 4.832-2.168 4.832-4.832v-14.5c0-2.668-2.168-4.832-4.832-4.832h-12.293l12.293-29zm-18.414-7.793c0.375-0.875 1.082-1.582 1.957-1.918 0.875-0.33203 1.832-0.33203 2.668 0.042969l9.957 4.207c1.832 0.79297 2.668 2.875 1.918 4.668l-2.582 6.125-16.5-7zm-16.461 38.75 13.043-30.707 16.5 6.957-12.5 29.5-0.54297 1.25c-0.75 1.75-1.957 3.293-3.5 4.457l-6.25 4.668c-1.207 0.91797-2.707 1.082-4.082 0.5s-2.293-1.793-2.457-3.25l-0.95703-7.293-0.042969-0.41797c-0.25-1.9531 0.039062-3.9141 0.78906-5.6641zm18.668 7.2109h13.168c1.5 0 2.75 1.25 2.75 2.75v14.5c0 1.5-1.25 2.75-2.75 2.75h-63.086c-1.5 0-2.75-1.25-2.75-2.75v-14.5c0-1.5 1.25-2.75 2.75-2.75h28.543l0.83203 6.418c0.29297 2.207 1.668 4.043 3.707 4.918 0.45703 0.20703 0.95703 0.33203 1.457 0.41797 0.125 0 0.25 0.042969 0.375 0.042969 0.20703 0 0.41797 0.042968 0.625 0.042968 0.125 0 0.20703-0.042968 0.33203-0.042968 0.41797-0.042969 0.79297-0.082032 1.168-0.20703 0.20703-0.042968 0.41797-0.082031 0.58203-0.16797 0.58203-0.20703 1.125-0.45703 1.625-0.875l6.25-4.668c1.832-1.375 3.293-3.207 4.168-5.293z"/>
</svg>